Coordinates
version=1
nRows=14
nColumns=24
inDegrees=yes

Units are S.I. units (second, meters, Newtons, ...)
Angles are in degrees.

endheader
time	pelvis_tilt	pelvis_list	pelvis_rotation	pelvis_tx	pelvis_ty	pelvis_tz	hip_flexion_r	hip_adduction_r	hip_rotation_r	knee_angle_r	ankle_angle_r	subtalar_angle_r	mtp_angle_r	hip_flexion_l	hip_adduction_l	hip_rotation_l	knee_angle_l	ankle_angle_l	subtalar_angle_l	mtp_angle_l	lumbar_extension	lumbar_bending	lumbar_rotation
      0.61200000	     -5.55667405	      2.63292104	     11.66179956	     -0.73947475	      0.87279972	      0.26439379	     35.14032993	     -5.44157185	     -9.01715371	     -7.08065455	      2.66089385	     -0.02564706	      6.32063036	    -17.75117661	      1.87097535	      8.50684669	     -6.91725660	     10.65265208	      1.61051028	     17.31618563	     -3.13449726	     -4.31677984	    -14.37892963
      0.61616667	     -5.61970092	      2.54334785	     11.67878077	     -0.73353507	      0.87177537	      0.26477545	     35.28568065	     -5.28961823	     -8.89430522	     -7.76256954	      2.52970010	     -0.22314853	      6.26880621	    -17.79108084	      1.70139538	      8.38597954	     -7.45043401	     10.52000380	      1.72231357	     17.37324160	     -3.00584420	     -4.15637465	    -14.25151738
      0.62033333	     -5.67606372	      2.43214050	     11.68888804	     -0.72754801	      0.87079476	      0.26520929	     35.40312684	     -5.10099736	     -8.75557692	     -8.41463419	      2.26094998	     -0.53277301	      6.22356741	    -17.81599514	      1.50385549	      8.21204783	     -8.02073258	     10.40683326	      1.93063829	     17.49274989	     -2.90007764	     -3.98328751	    -14.13447826
      0.62450000	     -5.70823421	      2.31935261	     11.68486780	     -0.72150180	      0.86988343	      0.26567381	     35.49065380	     -4.89641815	     -8.63715757	     -9.07589586	      1.93682816	     -0.88604162	      6.19859688	    -17.85755615	      1.30231766	      8.01995572	     -8.60990551	     10.27945118	      2.14774735	     17.69276279	     -2.80956984	     -3.80720058	    -14.01423199
      0.62866667	     -5.74663378	      2.19307208	     11.66976904	     -0.71540233	      0.86900010	      0.26617018	     35.57199119	     -4.66797896	     -8.50519915	     -9.72212065	      1.56493274	     -1.27068984	      6.20272380	    -17.88039758	      1.09059269	      7.81409283	     -9.22270081	     10.08668271	      2.32516097	     17.96419786	     -2.70698946	     -3.60901021	    -13.88512896
      0.63283333	     -5.79485011	      2.06064064	     11.64726092	     -0.70925760	      0.86814562	      0.26669418	     35.65653656	     -4.42705702	     -8.36618173	    -10.36373908	      1.13288031	     -1.68690943	      6.23764838	    -17.87713663	      0.87686110	      7.61182669	     -9.86075353	      9.86156994	      2.47221482	     18.29527871	     -2.59007275	     -3.40501767	    -13.74684985
      0.63700000	     -5.85443749	      1.91527488	     11.60530660	     -0.70304569	      0.86731971	      0.26725122	     35.74940443	     -4.16527630	     -8.24403483	    -11.00049554	      0.66840619	     -2.02423913	      6.27224910	    -17.86333965	      0.65976681	      7.43373690	    -10.49180166	      9.51570694	      2.53797115	     18.52732497	     -2.45973672	     -3.17428311	    -13.63185166
      0.64116667	     -5.90728455	      1.76871380	     11.57218976	     -0.69683320	      0.86652131	      0.26783546	     35.84641326	     -3.90627083	     -8.15898259	    -11.66727840	      0.14762471	     -2.44841620	      7.14802199	    -17.76880962	      0.42353550	      7.06847371	    -11.29290112	      9.30768892	      2.87636836	     22.52843468	     -2.32080281	     -2.96066984	    -13.52638167
      0.64533333	     -5.95721933	      1.61411116	     11.50597576	     -0.69052081	      0.86581071	      0.26844125	     35.91800979	     -3.61399867	     -8.01236514	    -12.29195116	     -0.42041608	     -2.92911517	      7.14742250	    -17.76853819	      0.20764162	      6.96505075	    -11.91045759	      8.82128218	      2.76060457	     22.58678653	     -2.18760581	     -2.71580683	    -13.34777754
      0.64950000	     -6.01158520	      1.46120651	     11.43619240	     -0.68421189	      0.86510664	      0.26908867	     36.01078288	     -3.31945780	     -7.85855663	    -12.95253322	     -1.03375479	     -3.54476056	      7.17415516	    -17.70420229	     -0.01057613	      6.76417238	    -12.65279275	      8.47020066	      2.81449706	     22.74069550	     -2.04289045	     -2.49396055	    -13.12827354
      0.65366667	     -6.09060076	      1.29288306	     11.36412907	     -0.67784993	      0.86443359	      0.26971661	     36.12502436	     -3.02323986	     -7.74344915	    -13.61136512	     -1.60317498	     -3.92865309	      7.19790255	    -17.59091297	     -0.23641807	      6.56717164	    -13.42913755	      7.95955194	      2.83768673	     22.86705480	     -1.85345289	     -2.22808818	    -12.98470114
      0.65783333	     -6.10376489	      1.07567528	     11.26751586	     -0.67142949	      0.86386900	      0.27046048	     36.16615243	     -2.63987571	     -7.59406495	    -14.25162354	     -2.25133022	     -4.59518481	      7.37365048	    -17.50172488	     -0.53994815	      6.21496690	    -14.28444733	      7.60151156	      3.10388271	     23.56972338	     -1.76648783	     -1.91621285	    -12.72496505
      0.66200000	     -6.23819937	      0.93996260	     11.18959599	     -0.66507590	      0.86319815	      0.27111978	     36.38880628	     -2.38678845	     -7.46467315	    -15.03651770	     -2.77945611	     -5.07161230	      7.42677025	    -17.29040612	     -0.70679007	      6.11618575	    -15.13275137	      7.09762385	      2.99583060	     23.82905428	     -1.53140349	     -1.72813674	    -12.57337271
      0.66616667	     -6.32732747	      0.75562888	     11.09371563	     -0.65865466	      0.86263363	      0.27182910	     36.54623718	     -2.06404089	     -7.32511295	    -15.78004075	     -3.31492261	     -5.58695627	      7.49578558	    -17.08516314	     -0.94064906	      5.90448147	    -16.05233236	      6.55494407	      3.01295482	     24.17844039	     -1.34221475	     -1.46132635	    -12.36199199
